<svg width="27" height="31" viewBox="0 0 27 31" fill="none" xmlns="http://www.w3.org/2000/svg">
<path fill-rule="evenodd" clip-rule="evenodd" d="M1.66765 30.3786C1.27059 30.5684 0.893382 30.5413 0.53603 30.2973C0.178677 30.0533 0 29.7144 0 29.2806V4.06676C0 3.41608 0.238235 2.84673 0.714706 2.35872C1.19118 1.87071 1.74706 1.62671 2.38235 1.62671H19.8529C20.4882 1.62671 21.0441 1.87071 21.5206 2.35872C21.9971 2.84673 22.2353 3.41608 22.2353 4.06676V29.2806C22.2353 29.7144 22.0566 30.0533 21.6993 30.2973C21.3419 30.5413 20.9647 30.5684 20.5676 30.3786L11.1176 26.2305L1.66765 30.3786Z" fill="#674DEE"/>
<path d="M21.3817 9.41451C21.6067 9.64496 21.8913 9.76019 22.2354 9.76019C22.5795 9.76019 22.8641 9.64496 23.0891 9.41451C23.3141 9.18406 23.4266 8.89261 23.4266 8.54016V6.10012H25.8089C26.1531 6.10012 26.4376 5.98489 26.6626 5.75444C26.8876 5.52399 27.0001 5.23254 27.0001 4.88009C27.0001 4.52764 26.8876 4.23619 26.6626 4.00574C26.4376 3.77529 26.1531 3.66007 25.8089 3.66007H23.4266V1.22002C23.4266 0.867572 23.3141 0.576122 23.0891 0.345673C22.8641 0.115225 22.5795 0 22.2354 0C21.8913 0 21.6067 0.115225 21.3817 0.345673C21.1567 0.576122 21.0442 0.867572 21.0442 1.22002V3.66007H18.6619C18.3178 3.66007 18.0332 3.77529 17.8082 4.00574C17.5832 4.23619 17.4707 4.52764 17.4707 4.88009C17.4707 5.23254 17.5832 5.52399 17.8082 5.75444C18.0332 5.98489 18.3178 6.10012 18.6619 6.10012H21.0442V8.54016C21.0442 8.89261 21.1567 9.18406 21.3817 9.41451Z" fill="black"/>
</svg>
