<svg width="32" height="29" viewBox="0 0 32 29" fill="none" xmlns="http://www.w3.org/2000/svg">
<rect width="31.321" height="21.4301" transform="matrix(-1 0 0 1 31.5483 4.06384)" fill="white"/>
<g clip-path="url(#clip0_357_6220)">
<path fill-rule="evenodd" clip-rule="evenodd" d="M25.5655 12.8216C26.277 13.198 26.9237 13.7698 27.1643 14.4911C27.2207 14.6602 27.2208 14.8431 27.1644 15.0123C26.9242 15.7337 26.2778 16.3058 25.5665 16.6826C24.8273 17.0742 23.8934 17.3253 22.8862 17.3255L19.2575 17.3265L15.772 22.7757L15.0777 22.3316L15.7636 22.7886C15.3217 23.4519 14.6295 23.6497 13.9706 23.5558C13.899 23.5456 13.829 23.526 13.7625 23.4975L13.3545 23.3227C12.676 23.0322 12.1588 22.3656 12.2799 21.5164C12.2822 21.5001 12.285 21.4839 12.2883 21.4677L13.1704 17.1497L11.5005 16.8162L10.0643 18.2531C9.90978 18.4077 9.70015 18.4946 9.48155 18.4947L8.31591 18.495C8.06897 18.4951 7.83501 18.3844 7.67841 18.1935C7.52181 18.0026 7.45905 17.7515 7.50742 17.5093L8.05719 14.7567L7.50597 12.0044C7.45748 11.7623 7.5201 11.5112 7.6766 11.3202C7.83311 11.1291 8.067 11.0184 8.31394 11.0183L9.47958 11.018C9.69819 11.0179 9.90786 11.1047 10.0625 11.2593L11.4994 12.6954L13.1691 12.361L12.2848 8.04347C12.2815 8.02736 12.2787 8.01115 12.2763 7.99487C12.1548 7.14568 12.6716 6.47884 13.35 6.18791C13.3904 6.17058 13.4321 6.15652 13.4747 6.14584L13.915 6.03564C14.6293 5.81368 15.3409 6.09339 15.7594 6.72079L15.7678 6.73369L19.2561 12.1811L22.8848 12.1801C23.8921 12.1799 24.8261 12.4304 25.5655 12.8216ZM14.3887 21.879L18.1118 16.0582C18.2633 15.8215 18.5249 15.6782 18.806 15.6781L22.8857 15.6771C23.6269 15.6769 24.2957 15.4904 24.7948 15.2259C25.0993 15.0646 25.3039 14.8956 25.4321 14.7522C25.3038 14.6087 25.0992 14.4398 24.7946 14.2787C24.2953 14.0145 23.6265 13.8284 22.8853 13.8286L18.8055 13.8297C18.5244 13.8297 18.2627 13.6866 18.1112 13.4499L14.385 7.63109C14.3818 7.62645 14.3787 7.62236 14.376 7.61878C14.3645 7.62221 14.3529 7.62538 14.3412 7.6283L13.9561 7.72467C13.9304 7.7397 13.9163 7.7528 13.9095 7.76022L14.9502 12.8413C14.9942 13.056 14.9508 13.2795 14.8296 13.4622C14.7085 13.6449 14.5195 13.7718 14.3046 13.8148L11.3906 14.3984C11.1204 14.4525 10.841 14.368 10.6461 14.1732L9.36513 12.893L9.70593 14.5946C9.7273 14.7013 9.72733 14.8112 9.70602 14.9179L9.36611 16.6198L10.6464 15.3389C10.8412 15.1439 11.1205 15.0593 11.3908 15.1133L14.305 15.6953C14.52 15.7383 14.709 15.8651 14.8303 16.0477C14.9515 16.2303 14.995 16.4538 14.9512 16.6686L13.9131 21.7501C13.9231 21.761 13.9488 21.784 14.0034 21.8074L14.2892 21.9298C14.3256 21.9289 14.3432 21.9228 14.3474 21.9212C14.351 21.9198 14.3538 21.9183 14.3581 21.9147C14.3624 21.9112 14.3734 21.9012 14.3887 21.879Z" fill="black"/>
</g>
<defs>
<clipPath id="clip0_357_6220">
<rect width="19.7817" height="19.7817" fill="white" transform="translate(15.8879 0.766907) rotate(44.9849)"/>
</clipPath>
</defs>
</svg>
