<svg width="319" height="88" viewBox="0 0 319 88" fill="none" xmlns="http://www.w3.org/2000/svg">
<rect width="11.903" height="88" fill="black"/>
<rect x="52.3733" width="7.14179" height="88" fill="black"/>
<path d="M35.709 0H38.0896V88H35.709V0Z" fill="black"/>
<path d="M73.7986 0H76.1792V88H73.7986V0Z" fill="black"/>
<path d="M16.6641 0H21.4253V88H16.6641V0Z" fill="black"/>
<path d="M64.2761 0H69.0373V88H64.2761V0Z" fill="black"/>
<path d="M42.8506 0H47.6118V88H42.8506V0Z" fill="black"/>
<path d="M26.1865 0H30.9477V88H26.1865V0Z" fill="black"/>
<rect width="11.903" height="88" transform="matrix(-1 0 0 1 238.06 0)" fill="black"/>
<rect width="7.14179" height="88" transform="matrix(-1 0 0 1 185.686 0)" fill="black"/>
<path d="M202.351 0H199.97V88H202.351V0Z" fill="black"/>
<path d="M164.261 0H161.88V88H164.261V0Z" fill="black"/>
<path d="M221.396 0H216.634V88H221.396V0Z" fill="black"/>
<path d="M173.783 0H169.022V88H173.783V0Z" fill="black"/>
<path d="M195.209 0H190.448V88H195.209V0Z" fill="black"/>
<path d="M211.873 0H207.112V88H211.873V0Z" fill="black"/>
<rect width="11.903" height="88" transform="matrix(-1 0 0 1 157.119 0)" fill="black"/>
<rect width="7.14179" height="88" transform="matrix(-1 0 0 1 104.746 0)" fill="black"/>
<path d="M121.41 0H119.03V88H121.41V0Z" fill="black"/>
<path d="M83.3208 0H80.9402V88H83.3208V0Z" fill="black"/>
<path d="M140.455 0H135.694V88H140.455V0Z" fill="black"/>
<path d="M92.8433 0H88.0821V88H92.8433V0Z" fill="black"/>
<path d="M114.269 0H109.508V88H114.269V0Z" fill="black"/>
<path d="M130.933 0H126.172V88H130.933V0Z" fill="black"/>
<rect x="242.821" width="11.903" height="88" fill="black"/>
<rect x="295.194" width="7.14179" height="88" fill="black"/>
<path d="M278.53 0H280.91V88H278.53V0Z" fill="black"/>
<path d="M316.619 0H319V88H316.619V0Z" fill="black"/>
<path d="M259.485 0H264.246V88H259.485V0Z" fill="black"/>
<path d="M307.097 0H311.858V88H307.097V0Z" fill="black"/>
<path d="M285.671 0H290.433V88H285.671V0Z" fill="black"/>
<path d="M269.007 0H273.769V88H269.007V0Z" fill="black"/>
</svg>
