<svg width="20" height="20" viewBox="0 0 20 20" fill="none" xmlns="http://www.w3.org/2000/svg">
<path fill-rule="evenodd" clip-rule="evenodd" d="M16.1903 3.63252C14.761 2.20323 11.8217 2.36686 9.5834 4.60512L9.58241 4.60612C7.34469 6.8362 7.18336 9.78061 8.61649 11.2012L8.62321 11.2079L8.62317 11.2079C9.36308 11.9584 10.4976 12.274 11.7615 12.0747C11.6454 10.7654 12.2152 9.35157 13.2725 8.29423C14.3296 7.23713 15.7475 6.6681 17.0575 6.78301C17.253 5.51386 16.9383 4.38054 16.1903 3.63252ZM12.7344 12.6933L13.5088 12.4111C13.2236 11.6283 13.4693 10.4287 14.4382 9.45987C15.4061 8.49188 16.6139 8.24503 17.3977 8.53054C17.611 8.60824 17.8469 8.59453 18.0497 8.49265C18.2526 8.39077 18.4044 8.20974 18.4695 7.99225C19.0576 6.02571 18.7901 3.90099 17.356 2.46688C15.0269 0.137799 11.01 0.847618 8.41826 3.43898C5.82759 6.02122 5.11492 10.0469 7.45262 12.3687C8.88005 13.8135 11.0162 14.0793 12.9749 13.4816L12.7344 12.6933Z" fill="black"/>
<path fill-rule="evenodd" clip-rule="evenodd" d="M7.52289 9.94265C7.84478 10.2645 7.84478 10.7864 7.52289 11.1083L5.74254 12.8886C5.46612 13.1651 5.03356 13.2093 4.70691 12.9945C4.46934 12.8383 4.1852 12.7688 3.90235 12.7976C3.6195 12.8264 3.35523 12.9519 3.15405 13.1528L3.15033 13.1565L3.15031 13.1565C2.98696 13.3176 2.87199 13.5212 2.81842 13.7442C2.76484 13.9673 2.77482 14.2009 2.84721 14.4185C2.9196 14.6362 3.05151 14.8293 3.22799 14.9758C3.40447 15.1224 3.61848 15.2166 3.84575 15.2477C4.21082 15.2978 4.49832 15.5841 4.54991 15.9489C4.57588 16.1326 4.64285 16.3081 4.74586 16.4624C4.84887 16.6166 4.98527 16.7458 5.14496 16.8402C5.30465 16.9345 5.48353 16.9918 5.66835 17.0077C5.85318 17.0235 6.0392 16.9976 6.21264 16.9318C6.38608 16.866 6.54249 16.762 6.67028 16.6275C6.79807 16.4931 6.89397 16.3316 6.95086 16.155C7.00775 15.9785 7.02418 15.7914 6.99894 15.6076C6.97369 15.4238 6.90742 15.2481 6.80502 15.0934C6.5887 14.7666 6.63238 14.3327 6.90949 14.0556L8.68984 12.2752C9.01172 11.9533 9.5336 11.9533 9.85548 12.2752C10.1774 12.5971 10.1774 13.119 9.85548 13.4409L8.49084 14.8055C8.55748 14.9921 8.60494 15.1857 8.63207 15.3832C8.69098 15.812 8.65264 16.2486 8.51989 16.6606C8.38714 17.0726 8.16339 17.4494 7.86521 17.7632C7.56703 18.0769 7.20207 18.3195 6.79738 18.4731C6.39268 18.6266 5.95863 18.6871 5.52738 18.6501C5.09613 18.6131 4.67873 18.4795 4.30612 18.2592C3.93351 18.039 3.61524 17.7377 3.37489 17.3777C3.24273 17.1798 3.136 16.9669 3.05661 16.7441C2.73684 16.6314 2.43804 16.4626 2.17486 16.2441C1.76148 15.9008 1.45251 15.4486 1.28296 14.9387C1.11341 14.4289 1.09004 13.8817 1.21553 13.3592C1.3408 12.8376 1.60943 12.3615 1.99105 11.9845C2.46023 11.5168 3.07611 11.2248 3.73522 11.1576C4.1628 11.1141 4.59165 11.1668 4.99139 11.3085L6.35725 9.94265C6.67913 9.62076 7.20101 9.62076 7.52289 9.94265Z" fill="black"/>
</svg>
