<svg width="20" height="20" viewBox="0 0 20 20" fill="none" xmlns="http://www.w3.org/2000/svg">
<path d="M17.3089 16.4847C17.3089 16.922 17.1352 17.3412 16.8261 17.6504C16.5169 17.9595 16.0976 18.1332 15.6604 18.1332H4.12113C3.68393 18.1332 3.26463 17.9595 2.95548 17.6504C2.64633 17.3412 2.47266 16.922 2.47266 16.4847C2.47266 15.1731 2.99369 13.9153 3.92114 12.9878C4.84858 12.0604 6.10647 11.5393 7.41807 11.5393H12.3635C13.6751 11.5393 14.933 12.0604 15.8604 12.9878C16.7879 13.9153 17.3089 15.1731 17.3089 16.4847ZM9.89078 9.89086C10.7059 9.89086 11.5027 9.64916 12.1804 9.19632C12.8581 8.74348 13.3863 8.09984 13.6983 7.34679C14.0102 6.59374 14.0918 5.76511 13.9328 4.96568C13.7738 4.16625 13.3813 3.43192 12.8049 2.85557C12.2285 2.27921 11.4942 1.8867 10.6948 1.72769C9.89535 1.56867 9.06672 1.65028 8.31367 1.96221C7.56063 2.27413 6.91699 2.80235 6.46414 3.48008C6.0113 4.1578 5.7696 4.95459 5.7696 5.76968C5.7696 6.86269 6.2038 7.91092 6.97667 8.6838C7.74954 9.45667 8.79778 9.89086 9.89078 9.89086Z" fill="black"/>
</svg>
